<?xml version="1.0" encoding="UTF-8" standalone="no"?>
<svg xmlns:rdf="http://www.w3.org/1999/02/22-rdf-syntax-ns#" xmlns="http://www.w3.org/2000/svg" viewBox="0 0 594.14171 208.06298" height="58.72mm" width="167.68mm" version="1.1" xmlns:cc="http://creativecommons.org/ns#" xmlns:dc="http://purl.org/dc/elements/1.1/">
<g transform="translate(657.07 63.098)">
<g transform="matrix(.035433 0 0 .035433 -710.43 -202)">
<g class="com.sun.star.drawing.CustomShape">
<path fill="none" d="m1506 3920h6226v5845h-6226z"/>
<path fill="#729fcf" d="m4619 9763h-3112v-5842h6223v5842h-3111z"/>
<path fill="none" d="m4619 9763h-3112v-5842h6223v5842h-3111z" stroke="#3465a4"/>
<g style="">
<path d="m2132.4 4125.9h57.694v-66.57h-22.824c-1.902-27.262 10.778-43.746 42.478-55.158l-7.608-22.19c-48.184 10.778-69.74 35.504-69.74 86.858v57.06zm-126.8 0h58.328v-66.57h-23.458c-1.902-27.262 10.778-43.746 42.478-55.158l-7.608-22.19c-48.184 10.778-69.74 35.504-69.74 86.858v57.06z"/>
<path d="m2298.1 4029.6h55.792v-53.89h-55.792v53.89zm3.17 399.42h48.818v-327.78h-48.818v327.78z"/>
<path d="m2464 4429h48.818v-187.66c0-61.498 41.844-102.71 98.27-102.71 57.694 0 90.662 38.04 90.662 98.904v191.47h48.818v-203.51c0-77.982-46.282-131.24-125.53-131.24-56.426 0-90.662 28.53-112.22 64.034v-57.06h-48.818v327.78z"/>
<path d="m2855.3 4029.6h55.792v-53.89h-55.792v53.89zm3.17 399.42h48.818v-327.78h-48.818v327.78z"/>
<path d="m3130.9 4434.7c23.458 0 41.844-5.072 58.962-13.948v-41.844c-17.118 8.242-31.066 11.412-47.55 11.412-32.968 0-55.158-14.582-55.158-54.524v-191.47h103.98v-43.112h-103.98v-98.904h-48.818v98.904h-45.648v43.112h45.648v197.81c0 66.57 39.942 92.564 92.564 92.564z"/>
<path d="m3396 4129.1c48.184-10.778 69.74-35.504 69.74-86.858v-57.06h-57.694v66.57h22.824c2.536 27.262-10.778 43.746-42.478 55.158l7.608 22.19zm-126.8 0c48.184-10.778 70.374-35.504 70.374-86.858v-57.06h-58.328v66.57h22.824c2.536 27.262-10.778 43.746-42.478 55.158l7.608 22.19z"/>
<path d="m3756.8 4429h48.818v-187.66c0-61.498 41.844-102.71 98.27-102.71 57.694 0 90.662 38.04 90.662 98.904v191.47h48.818v-203.51c0-77.982-46.282-131.24-125.53-131.24-56.426 0-90.662 28.53-112.22 64.034v-57.06h-48.818v327.78z"/>
<path d="m4244.5 4436c57.694 0 95.1-26.628 117.92-55.792v48.818h48.184v-200.34c0-41.844-11.412-73.544-34.236-96.368-23.458-23.458-59.596-36.138-105.88-36.138-48.184 0-83.054 11.412-119.19 27.896l14.582 39.942c30.432-13.948 60.864-23.458 99.538-23.458 61.498 0 97.002 30.432 97.002 88.76v10.144c-29.164-8.242-58.328-13.948-100.17-13.948-83.054 0-140.11 36.772-140.11 107.15v1.268c0 67.204 60.864 102.07 122.36 102.07zm9.51-39.308c-44.38 0-82.42-24.092-82.42-65.302v-1.268c0-39.308 34.87-65.936 95.734-65.936 39.942 0 71.642 6.974 95.734 13.948v30.432c0 51.988-48.818 88.126-109.05 88.126z"/>
<path d="m4513.4 4429h48.818v-187.03c0-60.23 39.308-103.34 91.296-103.34s84.322 36.138 84.322 97.636v192.74h48.184v-188.93c0-64.668 41.21-101.44 90.662-101.44 53.256 0 84.956 35.504 84.956 98.904v191.47h48.818v-202.88c0-81.152-46.282-131.87-121.73-131.87-57.06 0-91.93 29.164-115.39 65.302-17.752-36.772-51.988-65.302-105.24-65.302-55.158 0-84.322 29.798-105.88 62.132v-55.158h-48.818v327.78z"/>
<path d="m5145.6 4285.1h259.94c0.634-7.608 0.634-12.68 0.634-17.118 0-96.368-55.792-173.72-152.79-173.72-90.662 0-157.23 76.08-157.23 171.18 0 102.07 73.544 171.18 163.57 171.18 62.132 0 102.07-24.726 135.04-61.498l-30.432-27.262c-26.628 27.896-58.328 46.282-103.34 46.282-57.694 0-108.41-39.942-115.39-109.05zm0-39.308c6.974-63.4 50.086-110.32 106.51-110.32 64.668 0 98.904 50.72 104.61 110.32h-211.12z"/>
<path d="m5600 4435.3c65.302 0 116.66-36.138 116.66-98.27v-1.268c0-58.962-54.524-78.616-105.24-93.832-43.746-13.314-84.322-25.36-84.322-56.426v-1.268c0-27.262 24.726-47.55 63.4-47.55 31.7 0 66.57 12.046 97.002 31.7l22.19-36.772c-33.602-22.19-77.982-36.138-117.92-36.138-64.668 0-111.58 37.406-111.58 93.832v1.268c0 60.23 57.06 77.982 108.41 92.564 43.112 12.046 81.786 24.726 81.786 57.694v1.268c0 31.7-28.53 51.988-67.838 51.988-38.674 0-77.982-15.216-113.49-41.844l-24.726 34.87c36.772 29.798 88.76 48.184 135.68 48.184z"/>
<path d="m5807.4 4530.4h48.818v-164.21c25.36 36.772 64.668 69.74 125.53 69.74 79.25 0 156.6-63.4 156.6-170.55v-1.268c0-107.78-77.982-169.91-156.6-169.91-60.23 0-98.904 33.602-125.53 72.91v-65.936h-48.818v429.22zm165.47-138.21c-60.864 0-118.56-50.72-118.56-126.8v-1.268c0-74.812 57.694-126.17 118.56-126.17 62.132 0 115.39 49.452 115.39 126.8v1.268c0 79.25-51.988 126.17-115.39 126.17z"/>
<path d="m6326 4436c57.694 0 95.1-26.628 117.92-55.792v48.818h48.184v-200.34c0-41.844-11.412-73.544-34.236-96.368-23.458-23.458-59.596-36.138-105.88-36.138-48.184 0-83.054 11.412-119.19 27.896l14.582 39.942c30.432-13.948 60.864-23.458 99.538-23.458 61.498 0 97.002 30.432 97.002 88.76v10.144c-29.164-8.242-58.328-13.948-100.17-13.948-83.054 0-140.11 36.772-140.11 107.15v1.268c0 67.204 60.864 102.07 122.36 102.07zm9.51-39.308c-44.38 0-82.42-24.092-82.42-65.302v-1.268c0-39.308 34.87-65.936 95.734-65.936 39.942 0 71.642 6.974 95.734 13.948v30.432c0 51.988-48.818 88.126-109.05 88.126z"/>
<path d="m6742.6 4436.6c61.498 0 100.81-26.628 133.77-63.4l-31.066-29.164c-25.994 27.896-58.328 48.818-100.17 48.818-68.472 0-120.46-56.426-120.46-127.43v-1.268c0-70.374 50.72-126.8 117.29-126.8 44.38 0 73.544 22.19 99.538 49.452l32.334-34.236c-30.432-32.334-69.106-58.328-131.24-58.328-95.734 0-168.01 78.616-168.01 171.18v1.268c0 91.93 72.276 169.91 168.01 169.91z"/>
<path d="m6975.8 4285.1h259.94c0.634-7.608 0.634-12.68 0.634-17.118 0-96.368-55.792-173.72-152.79-173.72-90.662 0-157.23 76.08-157.23 171.18 0 102.07 73.544 171.18 163.57 171.18 62.132 0 102.07-24.726 135.04-61.498l-30.432-27.262c-26.628 27.896-58.328 46.282-103.34 46.282-57.694 0-108.41-39.942-115.39-109.05zm0-39.308c6.974-63.4 50.086-110.32 106.51-110.32 64.668 0 98.904 50.72 104.61 110.32h-211.12z"/>
</g>
</g>
<g class="com.sun.star.drawing.CustomShape">
<path fill="none" d="m3031 5316h2798v1909h-2798z"/>
<path fill="#f96" d="m3594 5317h1670l563 953-563 953h-1670l-562-953 562-953zm-562 0zm2795 1906z"/>
<g stroke="#3465a4" fill="none">
<path d="m3594 5317h1670l563 953-563 953h-1670l-562-953 562-953z"/>
<path d="m3032 5317z"/>
<path d="m5827 7223z"/>
</g>
<g style="">
<path d="m3774.7 6317.1h259.94c0.634-7.608 0.634-12.68 0.634-17.118 0-96.368-55.792-173.72-152.79-173.72-90.662 0-157.23 76.08-157.23 171.18 0 102.07 73.544 171.18 163.57 171.18 62.132 0 102.07-24.726 135.04-61.498l-30.432-27.262c-26.628 27.896-58.328 46.282-103.34 46.282-57.694 0-108.41-39.942-115.39-109.05zm0-39.308c6.974-63.4 50.086-110.32 106.51-110.32 64.668 0 98.904 50.72 104.61 110.32h-211.12z"/>
<path d="m4230.4 6466.7c23.458 0 41.844-5.072 58.962-13.948v-41.844c-17.118 8.242-31.066 11.412-47.55 11.412-32.968 0-55.158-14.582-55.158-54.524v-191.47h103.98v-43.112h-103.98v-98.904h-48.818v98.904h-45.648v43.112h45.648v197.81c0 66.57 39.942 92.564 92.564 92.564z"/>
<path d="m4377 6461h48.818v-187.66c0-61.498 41.844-102.71 98.27-102.71 57.694 0 90.662 38.04 90.662 98.904v191.47h48.818v-203.51c0-77.982-46.282-131.24-125.53-131.24-56.426 0-90.662 28.53-112.22 64.034v-192.1h-48.818v462.82z"/>
<path d="m4938.9 6468.6c114.12 0 187.66-105.24 187.66-229.51v-1.268c0-124.26-72.276-228.24-186.4-228.24s-188.3 105.24-188.3 229.51v1.268c0 124.26 72.276 228.24 187.03 228.24zm1.268-45.648c-83.054 0-136.31-86.858-136.31-183.86v-1.268c0-97.636 51.988-182.59 135.04-182.59 82.42 0 135.68 86.858 135.68 183.86v1.268c0 97.002-51.354 182.59-134.41 182.59z"/>
</g>
</g>
<g class="com.sun.star.drawing.CustomShape">
<path fill="none" d="m3058 7475h2798v1909h-2798z"/>
<path fill="#f96" d="m3621 7476h1670l563 953-563 953h-1670l-562-953 562-953zm-562 0zm2795 1906z"/>
<g stroke="#3465a4" fill="none">
<path d="m3621 7476h1670l563 953-563 953h-1670l-562-953 562-953z"/>
<path d="m3059 7476z"/>
<path d="m5854 9382z"/>
</g>
<g style="">
<path d="m3636.4 8622.5h43.112l88.76-258.67 88.126 258.67h42.478l115.39-330.31h-50.72l-86.224 263.11-88.76-264.38h-40.576l-88.126 264.38-86.224-263.11h-51.988l114.75 330.31z"/>
<path d="m4100 8620h48.818v-462.82h-48.818v462.82z"/>
<path d="m4360.4 8627c57.694 0 95.1-26.628 117.92-55.792v48.818h48.184v-200.34c0-41.844-11.412-73.544-34.236-96.368-23.458-23.458-59.596-36.138-105.88-36.138-48.184 0-83.054 11.412-119.19 27.896l14.582 39.942c30.432-13.948 60.864-23.458 99.538-23.458 61.498 0 97.002 30.432 97.002 88.76v10.144c-29.164-8.242-58.328-13.948-100.17-13.948-83.054 0-140.11 36.772-140.11 107.15v1.268c0 67.204 60.864 102.07 122.36 102.07zm9.51-39.308c-44.38 0-82.42-24.092-82.42-65.302v-1.268c0-39.308 34.87-65.936 95.734-65.936 39.942 0 71.642 6.974 95.734 13.948v30.432c0 51.988-48.818 88.126-109.05 88.126z"/>
<path d="m4629.3 8620h48.818v-187.66c0-61.498 41.844-102.71 98.27-102.71 57.694 0 90.662 38.04 90.662 98.904v191.47h48.818v-203.51c0-77.982-46.282-131.24-125.53-131.24-56.426 0-90.662 28.53-112.22 64.034v-57.06h-48.818v327.78z"/>
<path d="m5191.2 8627.6c114.12 0 187.66-105.24 187.66-229.51v-1.268c0-124.26-72.276-228.24-186.4-228.24s-188.3 105.24-188.3 229.51v1.268c0 124.26 72.276 228.24 187.03 228.24zm1.268-45.648c-83.054 0-136.31-86.858-136.31-183.86v-1.268c0-97.636 51.988-182.59 135.04-182.59 82.42 0 135.68 86.858 135.68 183.86v1.268c0 97.002-51.354 182.59-134.41 182.59z"/>
</g>
</g>
<g class="com.sun.star.drawing.CustomShape">
<path fill="none" d="m8619 3947h9655v5845h-9655z"/>
<path fill="#729fcf" d="m13446 9790h-4826v-5842h9652v5842h-4826z"/>
<path fill="none" d="m13446 9790h-4826v-5842h9652v5842h-4826z" stroke="#3465a4"/>
<g style="">
<path d="m9956.4 4152.9h57.694v-66.57h-22.824c-1.902-27.262 10.778-43.746 42.478-55.158l-7.608-22.19c-48.184 10.778-69.74 35.504-69.74 86.858v57.06zm-126.8 0h58.328v-66.57h-23.458c-1.902-27.262 10.778-43.746 42.478-55.158l-7.608-22.19c-48.184 10.778-69.74 35.504-69.74 86.858v57.06z"/>
<path d="m10269 4463.6c61.498 0 100.81-26.628 133.77-63.4l-31.066-29.164c-25.994 27.896-58.328 48.818-100.17 48.818-68.472 0-120.46-56.426-120.46-127.43v-1.268c0-70.374 50.72-126.8 117.29-126.8 44.38 0 73.544 22.19 99.538 49.452l32.334-34.236c-30.432-32.334-69.106-58.328-131.24-58.328-95.734 0-168.01 78.616-168.01 171.18v1.268c0 91.93 72.276 169.91 168.01 169.91z"/>
<path d="m10622 4463.6c98.904 0 171.81-78.616 171.81-171.18v-1.268c0-92.564-72.276-169.91-170.55-169.91-98.904 0-171.18 78.616-171.18 171.18v1.268c0 92.564 71.642 169.91 169.91 169.91zm1.268-43.746c-69.106 0-121.09-57.06-121.09-127.43v-1.268c0-69.106 48.818-126.8 119.83-126.8 69.106 0 121.73 57.694 121.73 128.07v1.268c0 69.106-49.452 126.17-120.46 126.17z"/>
<path d="m10882 4456h48.818v-187.66c0-61.498 41.844-102.71 98.27-102.71 57.694 0 90.662 38.04 90.662 98.904v191.47h48.818v-203.51c0-77.982-46.282-131.24-125.53-131.24-56.426 0-90.662 28.53-112.22 64.034v-57.06h-48.818v327.78z"/>
<path d="m11382 4461.7c23.458 0 41.844-5.072 58.962-13.948v-41.844c-17.118 8.242-31.066 11.412-47.55 11.412-32.968 0-55.158-14.582-55.158-54.524v-191.47h103.98v-43.112h-103.98v-98.904h-48.818v98.904h-45.648v43.112h45.648v197.81c0 66.57 39.942 92.564 92.564 92.564z"/>
<path d="m11626 4463c57.694 0 95.1-26.628 117.92-55.792v48.818h48.184v-200.34c0-41.844-11.412-73.544-34.236-96.368-23.458-23.458-59.596-36.138-105.88-36.138-48.184 0-83.054 11.412-119.19 27.896l14.582 39.942c30.432-13.948 60.864-23.458 99.538-23.458 61.498 0 97.002 30.432 97.002 88.76v10.144c-29.164-8.242-58.328-13.948-100.17-13.948-83.054 0-140.11 36.772-140.11 107.15v1.268c0 67.204 60.864 102.07 122.36 102.07zm9.51-39.308c-44.38 0-82.42-24.092-82.42-65.302v-1.268c0-39.308 34.87-65.936 95.734-65.936 39.942 0 71.642 6.974 95.734 13.948v30.432c0 51.988-48.818 88.126-109.05 88.126z"/>
<path d="m11897 4056.6h55.792v-53.89h-55.792v53.89zm3.17 399.42h48.818v-327.78h-48.818v327.78z"/>
<path d="m12062 4456h48.818v-187.66c0-61.498 41.844-102.71 98.27-102.71 57.694 0 90.662 38.04 90.662 98.904v191.47h48.818v-203.51c0-77.982-46.282-131.24-125.53-131.24-56.426 0-90.662 28.53-112.22 64.034v-57.06h-48.818v327.78z"/>
<path d="m12482 4312.1h259.94c0.634-7.608 0.634-12.68 0.634-17.118 0-96.368-55.792-173.72-152.79-173.72-90.662 0-157.23 76.08-157.23 171.18 0 102.07 73.544 171.18 163.57 171.18 62.132 0 102.07-24.726 135.04-61.498l-30.432-27.262c-26.628 27.896-58.328 46.282-103.34 46.282-57.694 0-108.41-39.942-115.39-109.05zm0-39.308c6.974-63.4 50.086-110.32 106.51-110.32 64.668 0 98.904 50.72 104.61 110.32h-211.12z"/>
<path d="m12828 4456h48.818v-130.6c0-98.904 58.328-150.26 129.97-150.26h3.804v-52.622c-62.132-2.536-109.68 36.772-133.77 91.296v-85.59h-48.818v327.78z"/>
<path d="m13219 4156.1c48.184-10.778 69.74-35.504 69.74-86.858v-57.06h-57.694v66.57h22.824c2.536 27.262-10.778 43.746-42.478 55.158l7.608 22.19zm-126.8 0c48.184-10.778 70.374-35.504 70.374-86.858v-57.06h-58.328v66.57h22.824c2.536 27.262-10.778 43.746-42.478 55.158l7.608 22.19z"/>
<path d="m13579 4456h48.818v-187.66c0-61.498 41.844-102.71 98.27-102.71 57.694 0 90.662 38.04 90.662 98.904v191.47h48.818v-203.51c0-77.982-46.282-131.24-125.53-131.24-56.426 0-90.662 28.53-112.22 64.034v-57.06h-48.818v327.78z"/>
<path d="m14067 4463c57.694 0 95.1-26.628 117.92-55.792v48.818h48.184v-200.34c0-41.844-11.412-73.544-34.236-96.368-23.458-23.458-59.596-36.138-105.88-36.138-48.184 0-83.054 11.412-119.19 27.896l14.582 39.942c30.432-13.948 60.864-23.458 99.538-23.458 61.498 0 97.002 30.432 97.002 88.76v10.144c-29.164-8.242-58.328-13.948-100.17-13.948-83.054 0-140.11 36.772-140.11 107.15v1.268c0 67.204 60.864 102.07 122.36 102.07zm9.51-39.308c-44.38 0-82.42-24.092-82.42-65.302v-1.268c0-39.308 34.87-65.936 95.734-65.936 39.942 0 71.642 6.974 95.734 13.948v30.432c0 51.988-48.818 88.126-109.05 88.126z"/>
<path d="m14336 4456h48.819v-187.03c0-60.23 39.307-103.34 91.296-103.34 51.988 0 84.321 36.138 84.321 97.636v192.74h48.185v-188.93c0-64.668 41.209-101.44 90.662-101.44 53.256 0 84.956 35.504 84.956 98.904v191.47h48.818v-202.88c0-81.152-46.282-131.87-121.73-131.87-57.061 0-91.93 29.164-115.39 65.302-17.753-36.772-51.988-65.302-105.24-65.302-55.157 0-84.322 29.798-105.88 62.132v-55.158h-48.819v327.78z"/>
<path d="m14968 4312.1h259.94c0.634-7.608 0.634-12.68 0.634-17.118 0-96.368-55.792-173.72-152.79-173.72-90.662 0-157.23 76.08-157.23 171.18 0 102.07 73.544 171.18 163.57 171.18 62.132 0 102.07-24.726 135.04-61.498l-30.432-27.262c-26.628 27.896-58.328 46.282-103.34 46.282-57.694 0-108.41-39.942-115.39-109.05zm0-39.308c6.974-63.4 50.086-110.32 106.51-110.32 64.668 0 98.904 50.72 104.61 110.32h-211.12z"/>
<path d="m15423 4462.3c65.302 0 116.66-36.138 116.66-98.27v-1.268c0-58.962-54.524-78.616-105.24-93.832-43.746-13.314-84.322-25.36-84.322-56.426v-1.268c0-27.262 24.726-47.55 63.4-47.55 31.7 0 66.57 12.046 97.002 31.7l22.19-36.772c-33.602-22.19-77.982-36.138-117.92-36.138-64.668 0-111.58 37.406-111.58 93.832v1.268c0 60.23 57.06 77.982 108.41 92.564 43.112 12.046 81.786 24.726 81.786 57.694v1.268c0 31.7-28.53 51.988-67.838 51.988-38.674 0-77.982-15.216-113.49-41.844l-24.726 34.87c36.772 29.798 88.76 48.184 135.68 48.184z"/>
<path d="m15630 4557.4h48.818v-164.21c25.36 36.772 64.668 69.74 125.53 69.74 79.25 0 156.6-63.4 156.6-170.55v-1.268c0-107.78-77.982-169.91-156.6-169.91-60.23 0-98.904 33.602-125.53 72.91v-65.936h-48.818v429.22zm165.47-138.21c-60.864 0-118.56-50.72-118.56-126.8v-1.268c0-74.812 57.694-126.17 118.56-126.17 62.132 0 115.39 49.452 115.39 126.8v1.268c0 79.25-51.988 126.17-115.39 126.17z"/>
<path d="m16149 4463c57.694 0 95.1-26.628 117.92-55.792v48.818h48.184v-200.34c0-41.844-11.412-73.544-34.236-96.368-23.458-23.458-59.596-36.138-105.88-36.138-48.184 0-83.054 11.412-119.19 27.896l14.582 39.942c30.432-13.948 60.864-23.458 99.538-23.458 61.498 0 97.002 30.432 97.002 88.76v10.144c-29.164-8.242-58.328-13.948-100.17-13.948-83.054 0-140.11 36.772-140.11 107.15v1.268c0 67.204 60.864 102.07 122.36 102.07zm9.51-39.308c-44.38 0-82.42-24.092-82.42-65.302v-1.268c0-39.308 34.87-65.936 95.734-65.936 39.942 0 71.642 6.974 95.734 13.948v30.432c0 51.988-48.818 88.126-109.05 88.126z"/>
<path d="m16565 4463.6c61.498 0 100.81-26.628 133.77-63.4l-31.066-29.164c-25.994 27.896-58.328 48.818-100.17 48.818-68.472 0-120.46-56.426-120.46-127.43v-1.268c0-70.374 50.72-126.8 117.29-126.8 44.38 0 73.544 22.19 99.538 49.452l32.334-34.236c-30.432-32.334-69.106-58.328-131.24-58.328-95.734 0-168.01 78.616-168.01 171.18v1.268c0 91.93 72.276 169.91 168.01 169.91z"/>
<path d="m16798 4312.1h259.94c0.634-7.608 0.634-12.68 0.634-17.118 0-96.368-55.792-173.72-152.79-173.72-90.662 0-157.23 76.08-157.23 171.18 0 102.07 73.544 171.18 163.57 171.18 62.132 0 102.07-24.726 135.04-61.498l-30.432-27.262c-26.628 27.896-58.328 46.282-103.34 46.282-57.694 0-108.41-39.942-115.39-109.05zm0-39.308c6.974-63.4 50.086-110.32 106.51-110.32 64.668 0 98.904 50.72 104.61 110.32h-211.12z"/>
</g>
</g>
<g class="com.sun.star.drawing.CustomShape">
<path fill="none" d="m10397 6205h2798v1909h-2798z"/>
<path fill="#ffd320" d="m10960 6206h1670l563 953-563 953h-1670l-562-953 562-953zm-562 0zm2795 1906z"/>
<g stroke="#3465a4" fill="none">
<path d="m10960 6206h1670l563 953-563 953h-1670l-562-953 562-953z"/>
<path d="m10398 6206z"/>
<path d="m13193 8112z"/>
</g>
<g style="">
<path d="m11231 7352.5h43.112l88.76-258.67 88.126 258.67h42.478l115.39-330.31h-50.72l-86.224 263.11-88.76-264.38h-40.576l-88.126 264.38-86.224-263.11h-51.988l114.75 330.31z"/>
<path d="m11823 7452.7c51.988 0 95.734-14.582 124.9-43.746 26.628-26.628 41.844-65.302 41.844-116.02v-270.72h-48.818v58.962c-26.628-35.504-66.57-65.936-128.07-65.936-77.982 0-154.06 58.962-154.06 154.7v1.268c0 94.466 75.446 153.43 154.06 153.43 60.23 0 100.17-31.066 128.7-69.106v38.674c0 76.714-46.916 116.66-119.19 116.66-46.916 0-88.76-14.582-126.17-41.844l-22.19 38.04c43.746 30.432 94.466 45.648 148.99 45.648zm-0.634-171.18c-60.864 0-113.49-45.648-113.49-111.58v-1.268c0-67.204 51.354-110.32 113.49-110.32 62.132 0 120.46 43.746 120.46 110.95v1.268c0 65.936-58.328 110.95-120.46 110.95z"/>
<path d="m12271 7357.6c114.12 0 187.66-105.24 187.66-229.51v-1.268c0-124.26-72.276-228.24-186.4-228.24s-188.3 105.24-188.3 229.51v1.268c0 124.26 72.276 228.24 187.03 228.24zm1.268-45.648c-83.054 0-136.31-86.858-136.31-183.86v-1.268c0-97.636 51.988-182.59 135.04-182.59 82.42 0 135.68 86.858 135.68 183.86v1.268c0 97.002-51.354 182.59-134.41 182.59z"/>
</g>
</g>
<g class="Group">
<g class="com.sun.star.drawing.LineShape">
<path fill="none" d="m6169 6880h4292v586h-4292z"/>
<path stroke-linejoin="bevel" d="m10409 7169-3695 3" stroke="#f63" stroke-linecap="round" stroke-width="102" fill="none"/>
<path fill="#f63" d="m6460 7464 293-291-293-293-291 293 291 291z"/>
</g>
<g class="com.sun.star.drawing.CustomShape">
<path fill="none" d="m7034 6537h2840v1271h-2840z"/>
<g style="">
<path d="m7766.2 7075.4c86.45 0 144.25-52.364 144.25-153.14v-198.09h-39.026v201.06c0 75.582-40.508 114.11-104.23 114.11-66.196 0-105.72-41.99-105.72-116.58v-198.59h-39.026v201.06c0 97.812 58.292 150.18 143.75 150.18z"/>
<path d="m8003.2 7070h120.04c108.68 0 183.77-75.582 183.77-172.9v-0.988c0-97.318-75.088-171.91-183.77-171.91h-120.04v345.8zm39.026-36.062v-273.68h81.016c87.438 0 143.26 60.268 143.26 136.84v0.988c0 76.57-55.822 135.85-143.26 135.85h-81.016z"/>
<path d="m8389.2 7070h39.026v-122.02h83.98c73.606 0 135.85-38.532 135.85-113.13v-0.988c0-68.172-51.376-109.67-129.43-109.67h-129.43v345.8zm39.026-157.59v-152.15h87.438c55.822 0 92.872 25.688 92.872 75.088v0.988c0 45.448-37.544 76.076-94.848 76.076h-85.462z"/>
<path d="m7049 7575.9c62.738 0 102.26-24.206 138.32-60.762l-25.688-25.194c-33.098 31.616-64.22 49.894-111.64 49.894-76.076 0-133.87-62.738-133.87-142.77v-0.988c0-79.534 57.304-141.78 133.87-141.78 46.93 0 79.534 19.76 108.68 47.424l26.676-28.652c-34.58-32.604-72.124-54.834-134.86-54.834-101.76 0-174.88 81.016-174.88 178.83v0.988c0 99.294 73.606 177.84 173.39 177.84z"/>
<path d="m7250.2 7258.8h43.472v-41.99h-43.472v41.99zm2.47 311.22h38.038v-255.4h-38.038v255.4z"/>
<path d="m7379.4 7649h38.038v-127.95c19.76 28.652 50.388 54.34 97.812 54.34 61.75 0 122.02-49.4 122.02-132.89v-0.988c0-83.98-60.762-132.39-122.02-132.39-46.93 0-77.064 26.182-97.812 56.81v-51.376h-38.038v334.44zm128.93-107.69c-47.424 0-92.378-39.52-92.378-98.8v-0.988c0-58.292 44.954-98.306 92.378-98.306 48.412 0 89.908 38.532 89.908 98.8v0.988c0 61.75-40.508 98.306-89.908 98.306z"/>
<path d="m7707.5 7570h38.038v-146.22c0-47.918 32.604-80.028 76.57-80.028 44.954 0 70.642 29.64 70.642 77.064v149.19h38.038v-158.57c0-60.762-36.062-102.26-97.812-102.26-43.966 0-70.642 22.23-87.438 49.894v-149.68h-38.038v360.62z"/>
<path d="m8034.1 7457.9h202.54c0.494-5.928 0.494-9.88 0.494-13.338 0-75.088-43.472-135.36-119.05-135.36-70.642 0-122.51 59.28-122.51 133.38 0 79.534 57.304 133.38 127.45 133.38 48.412 0 79.534-19.266 105.22-47.918l-23.712-21.242c-20.748 21.736-45.448 36.062-80.522 36.062-44.954 0-84.474-31.122-89.908-84.968zm0-30.628c5.434-49.4 39.026-85.956 82.992-85.956 50.388 0 77.064 39.52 81.51 85.956h-164.5z"/>
<path d="m8303.8 7570h38.038v-101.76c0-77.064 45.448-117.08 101.27-117.08h2.964v-41.002c-48.412-1.976-85.462 28.652-104.23 71.136v-66.69h-38.038v255.4z"/>
<path d="m8589 7574.4c18.278 0 32.604-3.952 45.942-10.868v-32.604c-13.338 6.422-24.206 8.892-37.05 8.892-25.688 0-42.978-11.362-42.978-42.484v-149.19h81.016v-33.592h-81.016v-77.064h-38.038v77.064h-35.568v33.592h35.568v154.13c0 51.87 31.122 72.124 72.124 72.124z"/>
<path d="m8718.2 7457.9h202.54c0.494-5.928 0.494-9.88 0.494-13.338 0-75.088-43.472-135.36-119.05-135.36-70.642 0-122.51 59.28-122.51 133.38 0 79.534 57.304 133.38 127.45 133.38 48.412 0 79.534-19.266 105.22-47.918l-23.712-21.242c-20.748 21.736-45.448 36.062-80.522 36.062-44.954 0-84.474-31.122-89.908-84.968zm0-30.628c5.434-49.4 39.026-85.956 82.992-85.956 50.388 0 77.064 39.52 81.51 85.956h-164.5z"/>
<path d="m8950.2 7570h42.484l79.534-104.23 79.04 104.23h43.966l-100.78-130.91 96.824-124.49h-42.484l-75.582 98.8-75.582-98.8h-43.472l96.33 125.48-100.28 129.92z"/>
<path d="m9342.5 7574.4c18.278 0 32.604-3.952 45.942-10.868v-32.604c-13.338 6.422-24.206 8.892-37.05 8.892-25.688 0-42.978-11.362-42.978-42.484v-149.19h81.016v-33.592h-81.016v-77.064h-38.038v77.064h-35.568v33.592h35.568v154.13c0 51.87 31.122 72.124 72.124 72.124z"/>
</g>
</g>
</g>
<g class="com.sun.star.drawing.CustomShape">
<path fill="none" d="m15476 5570h2417v3179h-2417z"/>
<path fill="#ffd320" d="m15477 6070c0-250 603-499 1207-499 603 0 1207 249 1207 499v2177c0 250-604 500-1207 500-604 0-1207-250-1207-500v-2177zm0-499zm2414 3176z"/>
<g stroke="#3465a4" fill="none">
<path d="m15477 6070c0-250 603-499 1207-499 603 0 1207 249 1207 499v2177c0 250-604 500-1207 500-604 0-1207-250-1207-500v-2177z"/>
<path d="m15477 5571z"/>
<path d="m17891 8747z"/>
</g>
<path fill="#ffd320" d="m15477 6070c0 250 603 500 1207 500 603 0 1207-250 1207-500h-2414zm0-499zm2414 3176z"/>
<g stroke="#3465a4" fill="none">
<path d="m15477 6070c0 250 603 500 1207 500 603 0 1207-250 1207-500"/>
<path d="m15477 5571z"/>
<path d="m17891 8747z"/>
</g>
<g style="">
<path d="m16039 7700.4h48.818v-164.21c25.36 36.772 64.668 69.74 125.53 69.74 79.25 0 156.6-63.4 156.6-170.55v-1.268c0-107.78-77.982-169.91-156.6-169.91-60.23 0-98.904 33.602-125.53 72.91v-65.936h-48.818v429.22zm165.47-138.21c-60.864 0-118.56-50.72-118.56-126.8v-1.268c0-74.812 57.694-126.17 118.56-126.17 62.132 0 115.39 49.452 115.39 126.8v1.268c0 79.25-51.988 126.17-115.39 126.17z"/>
<path d="m16461 7199.6h55.792v-53.89h-55.792v53.89zm3.17 399.42h48.818v-327.78h-48.818v327.78z"/>
<path d="m16627 7599h48.818v-187.66c0-61.498 41.844-102.71 98.27-102.71 57.694 0 90.662 38.04 90.662 98.904v191.47h48.818v-203.51c0-77.982-46.282-131.24-125.53-131.24-56.426 0-90.662 28.53-112.22 64.034v-57.06h-48.818v327.78z"/>
<path d="m17162 7701.7c51.988 0 95.734-14.582 124.9-43.746 26.628-26.628 41.844-65.302 41.844-116.02v-270.72h-48.818v58.962c-26.628-35.504-66.57-65.936-128.07-65.936-77.982 0-154.06 58.962-154.06 154.7v1.268c0 94.466 75.446 153.43 154.06 153.43 60.23 0 100.17-31.066 128.7-69.106v38.674c0 76.714-46.916 116.66-119.19 116.66-46.916 0-88.76-14.582-126.17-41.844l-22.19 38.04c43.746 30.432 94.466 45.648 148.99 45.648zm-0.634-171.18c-60.864 0-113.49-45.648-113.49-111.58v-1.268c0-67.204 51.354-110.32 113.49-110.32 62.132 0 120.46 43.746 120.46 110.95v1.268c0 65.936-58.328 110.95-120.46 110.95z"/>
</g>
</g>
<g class="com.sun.star.drawing.ConnectorShape">
<path fill="none" d="m13141 6697h2389v867h-2389z"/>
<path stroke-linejoin="round" d="m13192 7160h2286" stroke="#e6e64c" stroke-width="102" fill="none"/>
<g style="">
<path d="m13905 7063.9c62.738 0 102.26-24.206 138.32-60.762l-25.688-25.194c-33.098 31.616-64.22 49.894-111.64 49.894-76.076 0-133.87-62.738-133.87-142.77v-0.988c0-79.534 57.304-141.78 133.87-141.78 46.93 0 79.534 19.76 108.68 47.424l26.676-28.652c-34.58-32.604-72.124-54.834-134.86-54.834-101.76 0-174.88 81.016-174.88 178.83v0.988c0 99.294 73.606 177.84 173.39 177.84z"/>
<path d="m14109 7058h38.038v-360.62h-38.038v360.62z"/>
<path d="m14258 6945.9h202.54c0.494-5.928 0.494-9.88 0.494-13.338 0-75.088-43.472-135.36-119.05-135.36-70.642 0-122.51 59.28-122.51 133.38 0 79.534 57.304 133.38 127.45 133.38 48.412 0 79.534-19.266 105.22-47.918l-23.712-21.242c-20.748 21.736-45.448 36.062-80.522 36.062-44.954 0-84.474-31.122-89.908-84.968zm0-30.628c5.434-49.4 39.026-85.956 82.992-85.956 50.388 0 77.064 39.52 81.51 85.956h-164.5z"/>
<path d="m14604 7063.4c44.954 0 74.1-20.748 91.884-43.472v38.038h37.544v-156.1c0-32.604-8.892-57.304-26.675-75.088-18.279-18.278-46.436-28.158-82.498-28.158-37.544 0-64.714 8.892-92.873 21.736l11.363 31.122c23.711-10.868 47.423-18.278 77.557-18.278 47.919 0 75.582 23.712 75.582 69.16v7.904c-22.724-6.422-45.448-10.868-78.052-10.868-64.714 0-109.17 28.652-109.17 83.486v0.988c0 52.364 47.423 79.534 95.341 79.534zm7.41-30.628c-34.58 0-64.219-18.772-64.219-50.882v-0.988c0-30.628 27.17-51.376 74.593-51.376 31.123 0 55.822 5.434 74.595 10.868v23.712c0 40.508-38.039 68.666-84.969 68.666z"/>
<path d="m14813 7058h38.038v-101.76c0-77.064 45.448-117.08 101.27-117.08h2.964v-41.002c-48.412-1.976-85.462 28.652-104.23 71.136v-66.69h-38.038v255.4z"/>
<path d="m13989 7562.4c18.278 0 32.604-3.952 45.942-10.868v-32.604c-13.338 6.422-24.206 8.892-37.05 8.892-25.688 0-42.978-11.362-42.978-42.484v-149.19h81.016v-33.592h-81.016v-77.064h-38.038v77.064h-35.568v33.592h35.568v154.13c0 51.87 31.122 72.124 72.124 72.124z"/>
<path d="m14118 7445.9h202.54c0.494-5.928 0.494-9.88 0.494-13.338 0-75.088-43.472-135.36-119.05-135.36-70.642 0-122.51 59.28-122.51 133.38 0 79.534 57.304 133.38 127.45 133.38 48.412 0 79.534-19.266 105.22-47.918l-23.712-21.242c-20.748 21.736-45.448 36.062-80.522 36.062-44.954 0-84.474-31.122-89.908-84.968zm0-30.628c5.434-49.4 39.026-85.956 82.992-85.956 50.388 0 77.064 39.52 81.51 85.956h-164.5z"/>
<path d="m14350 7558h42.484l79.534-104.23 79.04 104.23h43.966l-100.78-130.91 96.824-124.49h-42.484l-75.582 98.8-75.582-98.8h-43.472l96.33 125.48-100.28 129.92z"/>
<path d="m14742 7562.4c18.278 0 32.604-3.952 45.942-10.868v-32.604c-13.338 6.422-24.206 8.892-37.05 8.892-25.688 0-42.978-11.362-42.978-42.484v-149.19h81.016v-33.592h-81.016v-77.064h-38.038v77.064h-35.568v33.592h35.568v154.13c0 51.87 31.122 72.124 72.124 72.124z"/>
</g>
</g>
</g>
</g>
</svg>
